<svg width="73" height="54" viewBox="0 0 73 54" fill="none" xmlns="http://www.w3.org/2000/svg">
<path d="M56.8777 19.2136L57.0418 20.2083L58.0248 20.432C76.8911 24.7259 74.2405 52.0208 54.7953 52.4751H41.5214V39.1264L42.6501 40.248L42.6501 40.248L42.6594 40.2571C43.7745 41.3461 45.1077 41.8181 46.4228 41.737C47.703 41.658 48.8548 41.0634 49.6959 40.2224C50.5371 39.3814 51.1321 38.2298 51.2174 36.9499C51.3049 35.6362 50.8461 34.2977 49.7695 33.1705L49.6834 33.0804L49.6127 33.0275C49.6054 33.0205 49.5742 32.9925 49.5094 32.9306C49.4162 32.8415 49.289 32.7167 49.1292 32.5578C48.8105 32.241 48.3828 31.8088 47.8785 31.2974C47.6325 31.0479 47.3688 30.7801 47.0918 30.4988C46.2375 29.6311 45.2568 28.635 44.2793 27.6529C42.9867 26.3544 41.684 25.0644 40.6709 24.1137C40.1683 23.642 39.714 23.2321 39.3582 22.9427C39.1871 22.8035 38.9966 22.6573 38.8131 22.5448C38.7287 22.493 38.5792 22.4064 38.3939 22.3429C38.3478 22.3271 38.2848 22.3076 38.2083 22.2907C36.2848 21.5668 34.1281 22.177 32.8087 23.6146L23.2553 33.1447L23.2426 33.1573L23.2302 33.1703C22.152 34.2986 21.6922 35.6379 21.7805 36.9528C21.8665 38.2337 22.4637 39.3848 23.3063 40.2247C24.1487 41.0644 25.3011 41.6576 26.5805 41.7361C27.895 41.8167 29.2277 41.3453 30.3409 40.2561L30.3409 40.2561L30.3491 40.248L31.478 39.1263V52.4752H18.2044C-1.24985 52.0196 -3.88319 24.721 14.9742 20.4325L15.9573 20.2089L16.1215 19.2141C19.9817 -4.17705 53.0179 -4.17385 56.8777 19.2136Z" stroke="#668AD7" stroke-width="3"/>
</svg>
